# xmcd
#
# Track frame offsets: 
#        150
#        13183
#        27240
#        43385
#        57114
#        69785
#        86055
#        99348
#        115676
#        131329
#
# Disc length: 1932 seconds
#
# Revision: 0
# Processed by: cddbd v1.5.2PL0 Copyright (c) Steve Scherf et al.
# Submitted via: ExactAudioCopyFreeDBPlugin 1.0
#
DISCID=7a078a0a
DTITLE=町あかり - 全曲集 その１
DYEAR=1900
DGENRE=Pop
TTITLE0=コテンパン
TTITLE1=とんでもない！結構です！大丈夫です！
TTITLE2=ひょん！
TTITLE3=花婿をかえして
TTITLE4=ほら、やっぱり
TTITLE5=堂々めぐり
TTITLE6=もぐらたたきのような人
TTITLE7=のっぴきならない事情
TTITLE8=ピンポンがこわい
TTITLE9=電車はドラマティック
EXTD=
EXTT0=
EXTT1=
EXTT2=
EXTT3=
EXTT4=
EXTT5=
EXTT6=
EXTT7=
EXTT8=
EXTT9=
PLAYORDER=
